<svg width="68" height="60" viewBox="0 0 68 60" fill="none" xmlns="http://www.w3.org/2000/svg">
<g clip-path="url(#clip0_169_8208)">
<path fill-rule="evenodd" clip-rule="evenodd" d="M55.8532 2.81546C53.6022 2.53408 51.3512 2.25271 49.1002 1.97133C43.3583 1.00234 38.021 -0.0545796 31.3735 0.0016957C30.0141 0.23559 28.6529 0.471243 27.2935 0.705137C26.9699 1.26086 26.5549 2.28436 27.4342 2.67477C28.8886 3.32194 33.8619 1.84999 36.2976 2.25271C40.33 2.81546 44.3643 3.37821 48.3967 3.94096C46.661 4.31555 44.927 4.69189 43.1913 5.06647C39.8622 5.72243 36.5314 6.38015 33.2024 7.03611C28.4665 6.05129 23.7288 5.06647 18.9929 4.08165C20.6337 3.80028 22.2762 3.5189 23.917 3.23752C24.0577 3.04935 24.1984 2.86294 24.3391 2.67477C24.2687 1.97485 24.2793 1.4842 23.7763 1.26789C19.7913 1.73744 15.8028 2.20522 11.8178 2.67477C7.87854 7.59886 3.93927 12.5247 0 17.447C0.0597925 20.857 3.98148 23.7868 5.62753 26.029C9.09725 30.6242 12.5687 35.2212 16.0385 39.8165C17.8762 42.2257 19.3956 44.8812 21.5253 46.9916C22.4169 46.8597 22.4661 46.6398 22.9322 46.1474C22.4802 43.3108 19.1248 40.6465 17.586 38.5503C13.084 32.5007 8.58198 26.4511 4.07996 20.4015C9.00404 21.9016 13.9281 23.4034 18.8522 24.9035C22.6965 35.0313 26.5443 45.1644 30.3887 55.2922C28.5949 53.6127 27.1739 49.3551 24.7611 48.5391C24.128 48.3545 23.8871 48.8029 23.4949 49.2426C23.7728 51.0117 29.6782 58.6546 31.0921 59.5128C32.1648 60.1635 35.2248 60.16 36.2976 59.5128C38.6453 58.0971 40.2825 54.5219 41.9251 52.3377L56.6973 32.6414C56.9523 31.8799 56.3316 31.3488 55.2905 31.3752C49.2883 39.2994 43.2845 47.2272 37.2824 55.1515C37.1892 55.1989 37.0942 55.2447 37.001 55.2922C40.8453 45.2576 44.6931 35.2195 48.5374 25.1849C53.4615 23.5898 58.3856 21.9965 63.3097 20.4015C61.2926 23.122 59.2772 25.8408 57.2601 28.5614V29.1242C57.494 29.3123 57.7296 29.4987 57.9635 29.6869C58.2449 29.7344 58.5263 29.7801 58.8077 29.8276C60.5786 28.1077 67.3158 20.1746 67.3896 17.5877C63.5453 12.6636 59.6975 7.73955 55.8532 2.81546ZM33.6245 9.84987C37.3756 14.1637 41.1284 18.4793 44.8795 22.7932L45.1609 23.0746H22.2287C26.0273 18.6675 29.8259 14.2569 33.6245 9.84987ZM2.67308 17.7284C5.67325 13.8366 8.67694 9.94308 11.6771 6.05129C13.7874 11.5381 15.8978 17.025 18.0081 22.5118C12.8976 20.9168 7.78357 19.3235 2.67308 17.7284ZM20.1184 21.9491C18.0081 16.369 15.8978 10.7872 13.7874 5.20716C19.6489 6.42587 25.512 7.64634 31.3735 8.86505H31.6548C28.0444 13.0382 24.4323 17.2131 20.8219 21.3863C20.588 21.5745 20.3523 21.7609 20.1184 21.9491ZM33.7652 57.5432V57.8245H33.6245C29.4988 46.9458 25.3696 36.0636 21.2439 25.1849H46.1457C42.02 35.9704 37.8908 46.7577 33.7652 57.5432ZM47.4119 21.8084C47.3187 21.8558 47.2238 21.9016 47.1305 21.9491C43.332 17.5877 39.5334 13.2264 35.7348 8.86505C41.6437 7.64634 47.5526 6.42587 53.4615 5.20716C51.4444 10.7397 49.429 16.2758 47.4119 21.8084ZM49.3816 22.5118C51.4444 17.025 53.509 11.5381 55.5718 6.05129C58.6195 9.94308 61.6689 13.8366 64.7166 17.7284C59.6061 19.3235 54.4921 20.9168 49.3816 22.5118Z" fill="#2962A8"/>
</g>
<defs>
<clipPath id="clip0_169_8208">
<rect width="67.3896" height="60" fill="white"/>
</clipPath>
</defs>
</svg>
