<svg width="44" height="60" viewBox="0 0 44 60" fill="none" xmlns="http://www.w3.org/2000/svg">
<g clip-path="url(#clip0_169_8204)">
<path fill-rule="evenodd" clip-rule="evenodd" d="M43.1056 26.8654C44.7207 22.5215 43.5654 16.8629 42.1097 13.4203C39.0455 6.17487 33.6359 2.25587 25.3033 0.224168C23.67 -0.174205 21.4142 0.0764377 19.5767 0.0996762C18.9858 0.49473 17.9682 0.265665 17.2113 0.473151C16.2851 0.727114 15.1564 0.957839 14.2235 1.34459C11.1013 2.63765 7.13082 5.06938 5.26013 7.56918C3.73303 9.61084 2.32545 11.7587 1.2764 14.2917C-0.0382353 17.4621 -0.552801 23.2883 0.77843 26.8654C3.22179 33.4352 7.2603 38.5012 11.1112 43.6718C12.225 45.1673 13.9065 46.3857 14.846 48.029H14.9705V48.1535C10.5303 48.4224 5.67842 49.3204 2.7703 51.2658C1.89222 51.8534 0.238966 53.1564 1.1519 55.0005C2.41342 57.5451 6.72083 58.0431 9.86632 58.8597C16.2569 60.518 29.1443 60.3088 35.2626 58.6108C37.9516 57.8638 40.1128 57.4621 41.9852 55.9964C43.6866 54.6652 42.6856 52.3712 41.4872 51.3902C39.2812 49.5843 32.7944 48.346 28.9135 48.1535C30.2415 46.0603 32.313 44.4187 33.7687 42.4268C37.2611 37.648 40.8681 32.8858 43.1056 26.8654ZM38.9974 52.3862C39.6497 52.6733 40.1643 53.2709 40.7403 53.6311C40.7137 53.9216 40.722 53.9813 40.6158 54.1291C39.8107 55.9201 34.6335 56.3882 32.2748 56.9924C30.5436 57.4356 28.2894 57.3028 26.4237 57.7393H22.191C21.2797 57.9285 18.687 57.8605 17.5848 57.6148C16.5474 57.5733 15.5099 57.5318 14.4725 57.4903C11.9545 56.8944 9.31358 56.8961 7.00301 56.1209C5.63858 55.6628 4.43849 54.9441 3.26826 54.378C3.18693 54.1556 3.25166 54.2602 3.14377 54.1291C3.25498 52.9622 4.35549 52.7746 5.26013 52.3862C7.33167 51.4981 9.88126 51.1313 12.3562 50.5188C13.3123 50.2814 15.1282 50.5835 15.8419 50.1453H16.8379C18.2903 51.6807 19.7427 53.2161 21.1951 54.7515C21.61 54.793 22.025 54.8345 22.44 54.876C23.4276 53.807 24.5198 52.675 25.5523 51.6392C26.0436 51.1462 26.6611 50.7412 27.0462 50.1453C31.1644 50.2316 35.9482 51.0433 38.9974 52.3862ZM27.0462 47.033C26.6727 47.365 26.2992 47.697 25.9257 48.029C25.2054 48.99 24.402 49.9246 23.5604 50.7678C23.0691 51.2591 22.4466 51.6641 22.0665 52.2617C21.2017 51.9695 19.9966 50.3727 19.4522 49.6474C18.9542 49.1909 18.4562 48.7344 17.9583 48.278C17.0404 47.0546 16.0162 46.0222 15.095 44.7922C14.3779 43.8328 13.3189 43.0227 12.6051 42.0534C9.32354 37.5982 5.96724 33.4352 3.64174 27.9858C2.41342 25.1092 1.47392 20.9346 2.6458 17.0305C3.16867 15.2893 3.85586 13.3937 4.76216 11.9264C7.22544 7.93435 10.766 5.09926 15.344 3.21197C16.6569 2.67084 18.2537 2.55465 19.7012 2.21603C20.3734 2.05834 21.3312 2.40028 21.8175 2.09154C23.5471 2.42352 25.3647 2.24093 26.9217 2.714C29.8481 3.6037 32.1088 4.98141 34.2667 6.57324C36.383 8.13354 37.9682 10.0225 39.2464 12.4244C39.9352 13.7174 40.6407 15.1217 41.1137 16.6571C42.6176 21.5388 41.2598 26.218 39.4953 29.6042C37.4719 33.49 35.251 36.8015 32.7728 40.186C31.0233 42.5762 28.8322 44.6561 27.0462 47.033ZM19.9501 6.07528C19.4572 6.40393 18.5724 6.26284 17.9583 6.44875C16.9109 6.76579 15.8436 7.12765 14.846 7.56918C11.2009 9.17927 8.4189 12.6667 6.87852 16.4081C6.42703 17.5053 6.28594 18.8133 6.00708 20.0183C5.59377 21.8027 6.14153 24.8005 6.50505 25.9939C8.18817 31.5147 11.0465 34.6851 16.0909 36.8247C17.8188 37.5567 19.6066 37.9451 22.191 37.9451H23.9339C25.2867 37.6347 26.7026 37.4605 27.9176 36.9492C31.4847 35.4487 34.7945 32.5754 36.383 29.1062C36.9806 27.7999 37.379 26.3458 37.7525 24.8735C38.6256 21.4292 37.3408 17.4007 36.383 15.2877C33.6841 9.33364 28.7874 5.9707 19.9501 6.07528ZM35.6361 24.6245C35.3938 25.5292 35.1431 26.6197 34.7647 27.4878C32.6334 32.3795 28.4704 35.2628 22.0665 35.9533C19.8539 36.1923 17.3873 35.193 15.9664 34.4594C12.484 32.6601 9.93272 30.0607 8.6214 26.1184C8.49691 25.3715 8.37242 24.6245 8.24793 23.8776C7.97405 22.797 7.93255 20.5777 8.24793 19.3959C8.48861 18.4929 8.73926 17.4223 9.11937 16.5326C10.683 12.8642 13.7256 10.3345 17.4603 8.81409C18.3318 8.60661 19.2032 8.39912 20.0746 8.19163C20.6191 8.05884 21.3113 8.30617 21.693 8.06714C28.8886 8.51531 32.6433 11.8733 34.8891 17.2795C35.5664 18.9079 36.2901 22.1779 35.6361 24.6245ZM29.6605 13.1713C28.1782 12.8875 26.1233 13.0468 24.4318 13.0468H14.4725C14.358 13.163 14.2567 13.2161 14.099 13.2958C13.787 14.637 13.3139 16.101 12.9786 17.404V25.8695C12.9786 26.8189 12.7329 29.9262 13.1031 30.4756C13.1446 30.6001 13.1861 30.7246 13.2276 30.8491C14.4808 31.0931 16.2503 30.9736 17.7093 30.9736H25.9257C26.8669 30.9736 29.8564 31.2143 30.4074 30.8491C30.5319 30.8076 30.6564 30.7661 30.7809 30.7246C31.088 29.088 30.9054 26.8471 30.9054 24.998C30.9054 20.4848 31.0266 16.2122 29.6605 13.1713ZM24.9298 15.0387C25.7382 15.0221 27.4993 14.793 28.0421 15.1632C28.3326 15.5317 28.4953 16.4844 28.5401 17.0305H24.9298V15.0387ZM20.9461 15.0387H22.9379V17.0305H20.9461V15.0387ZM20.9461 19.0224H22.9379V21.0143H20.9461V19.0224ZM15.7174 15.1632H15.8419V15.0387H18.9542V17.0305H15.344C15.4684 16.4081 15.5929 15.7856 15.7174 15.1632ZM28.9135 28.9817H14.9705V19.0224H18.9542C18.9376 19.9071 18.6671 21.904 19.0787 22.5082C19.1202 22.6327 19.1617 22.7572 19.2032 22.8817C19.912 23.0277 23.8874 23.2551 24.4318 22.8817C24.5563 22.8402 24.6808 22.7987 24.8053 22.7572C25.0078 21.733 24.9414 20.2474 24.9298 19.0224H28.9135V28.9817ZM23.0624 26.2429C22.9811 26.5965 22.8251 27.1625 23.0624 27.4878C23.1039 27.6123 23.1454 27.7368 23.1869 27.8613C23.8077 27.9908 26.9167 28.2082 27.4196 27.8613C27.5441 27.8198 27.6686 27.7783 27.7931 27.7368C27.8745 27.3833 28.0305 26.8172 27.7931 26.4919C27.7516 26.3674 27.7101 26.2429 27.6686 26.1184C26.4951 25.8877 24.8136 25.9807 23.4359 25.9939C23.3214 26.1101 23.2201 26.1633 23.0624 26.2429Z" fill="#2962A8"/>
</g>
<defs>
<clipPath id="clip0_169_8204">
<rect width="43.8891" height="60" fill="white"/>
</clipPath>
</defs>
</svg>
