<svg width="46" height="60" viewBox="0 0 46 60" fill="none" xmlns="http://www.w3.org/2000/svg">
<path fill-rule="evenodd" clip-rule="evenodd" d="M2.54129 22.6157C1.99648 20.8584 1.45335 19.0994 0.908539 17.3422C0.64035 13.8649 5.3851 13.1271 6.73954 11.0136C8.01302 9.02736 7.73471 5.65021 9.65588 4.33396C11.4556 3.10251 14.8577 4.38993 17.0032 3.63003C19.7341 2.66659 20.343 -0.0235907 24.2359 0.000156213C26.125 1.15188 28.1238 3.23991 30.3014 3.75046C32.4722 4.25933 35.4914 3.18563 37.1832 4.33566C39.1111 5.64682 38.821 9.02566 40.0995 11.0153C41.4169 13.0694 44.7515 13.5613 45.6978 15.9377C46.6356 18.2903 44.6756 20.7363 44.2978 22.7344C43.6838 25.9911 46.7722 27.7484 45.8141 30.8202C45.2103 32.7539 42.854 33.5714 41.3814 34.6875C40.0203 35.7205 38.4331 39.2809 38.2323 41.2502C37.9962 43.5604 43.8356 52.6961 43.0142 54.6095C42.4981 55.8121 36.716 54.8079 35.1996 54.4924C33.5669 56.2887 31.9341 58.0867 30.3014 59.883C29.9522 59.922 29.6014 59.961 29.2522 60C27.8236 58.5786 24.5766 49.5683 23.8868 47.1105H22.954C22.3265 49.1222 18.83 59.1994 17.5885 59.883C17.2394 59.922 16.8885 59.961 16.5394 60C14.9454 58.1647 13.3515 56.3277 11.7575 54.4924C9.50576 54.8283 6.22846 55.6458 4.17572 55.0776C4.02055 54.8045 3.86536 54.5314 3.7085 54.2566C5.34125 49.9212 6.974 45.5857 8.60674 41.2502C8.46674 39.7795 7.10387 36.2362 6.15762 35.2744C4.65644 33.7478 1.73335 33.0914 1.02661 30.8219C0.0584335 27.7144 3.22104 25.9504 2.54297 22.619L2.54129 22.6157ZM30.0669 56.2463C30.1445 56.2853 30.2221 56.3243 30.2997 56.3633C31.5428 54.9182 32.7876 53.473 34.0324 52.0278C36.0143 52.2229 37.9979 52.418 39.9798 52.613C38.7367 49.4496 37.4919 46.2845 36.2471 43.1211C29.9927 43.5061 30.0568 43.2466 26.2161 45.9334C27.4997 49.3699 28.7816 52.8081 30.0652 56.2446L30.0669 56.2463ZM6.85761 52.613C8.80072 52.418 10.7455 52.2229 12.6886 52.0278C14.3433 52.8301 15.1344 55.0064 16.5377 56.1293V56.3633C17.9377 52.8878 19.3377 49.4106 20.736 45.9351C19.4524 45.0751 18.1705 44.2168 16.8869 43.3568C14.9438 43.2788 12.999 43.2008 11.0559 43.1228H10.7067C9.42311 46.2862 8.1412 49.4513 6.85761 52.6147V52.613ZM3.47573 30.1146C5.10173 31.7616 7.58459 32.6809 8.8412 34.6841C9.85998 36.3108 9.85492 39.4352 11.2903 40.6599C13.4679 41.0619 15.8698 40.3579 17.8213 41.011C19.842 41.6878 21.0969 43.9777 22.9523 44.5272C24.3034 44.9258 27.5807 41.491 29.0178 41.011C30.9575 40.3647 33.3122 41.2162 35.4324 40.6599C36.9487 39.8644 36.9049 36.5194 37.7651 35.0353C39.0133 32.8777 42.1995 32.2026 43.247 30.1129C43.8862 28.2725 41.847 25.7078 41.7306 23.5503C41.5872 20.8991 43.2942 19.4268 43.3633 16.8706C41.5855 15.4424 39.0841 14.1753 37.8815 12.184C37.1815 10.2707 36.4815 8.35566 35.7815 6.44234C34.277 6.12515 32.5683 6.61875 30.7669 6.3253C27.6836 5.82492 25.7658 4.08462 23.7687 2.45796C21.1391 2.69373 19.9398 5.36186 17.4705 6.09123C15.6674 6.62383 12.8809 5.72654 11.2886 6.44234C9.85323 7.31249 9.83467 10.7303 8.95589 12.184C7.77181 14.1431 5.26366 15.5086 3.47404 16.8706C3.55332 19.4132 5.02752 20.8346 5.1068 23.4332C5.18776 26.0963 3.54995 27.5533 3.47404 30.1129L3.47573 30.1146ZM25.2851 8.08596C26.6462 8.43708 28.0074 8.78989 29.3669 9.141C33.5061 10.8542 36.8577 14.4959 38.2306 18.9841C41.5366 29.7889 32.1112 40.8125 21.3196 38.9043C12.4845 37.3421 4.71885 28.1572 9.19035 17.3438C11.6091 11.4953 16.8126 7.95705 25.2851 8.08596ZM21.7868 36.4431C31.0705 38.0715 39.0791 27.9129 35.5488 18.8653C34.1791 15.3559 31.3488 12.6233 27.8506 11.2494C26.8402 11.0153 25.8282 10.7812 24.8178 10.5455C6.87448 10.3182 6.05811 33.6851 21.7851 36.4431H21.7868ZM20.2704 19.5693C20.6803 18.2174 21.6468 15.6307 22.7195 14.8827C23.0029 14.6554 23.3116 14.6316 23.8851 14.6486C25.0371 15.7545 26.0677 17.8968 26.567 19.571C28.3161 19.8831 30.0669 20.1952 31.816 20.509C32.1837 20.721 32.2107 20.8363 32.3996 21.2129C32.2782 23.0075 29.8375 24.8105 28.6669 25.6654C28.8305 27.6228 29.517 29.4242 29.3669 31.29C29.1342 31.4461 28.8997 31.6021 28.6669 31.7582C27.0865 32.3213 25.0084 30.2248 23.6523 29.7668C22.5408 29.1766 20.0478 31.8226 18.1705 31.8769C17.9377 31.6428 17.7032 31.4088 17.4705 31.173C17.2191 29.4751 17.9934 27.5703 18.1705 25.7825C17.069 24.3356 15.303 23.457 14.4377 21.7981C14.4597 21.2841 14.4867 21.1383 14.6705 20.8601C15.3452 19.861 18.8064 19.6626 20.2687 19.571L20.2704 19.5693ZM20.2704 28.3573C23.3875 26.7646 23.4297 26.7323 26.5686 28.3573C26.4135 27.1852 26.2583 26.0131 26.1014 24.8411C26.879 24.0201 27.6566 23.2008 28.4342 22.3799C27.3074 22.1848 26.179 21.9898 25.0523 21.7947C24.5463 20.7787 24.0419 19.7626 23.5359 18.7483C22.8967 19.2063 22.2911 20.7871 22.0196 21.5606C21.1408 22.061 19.6953 21.9541 18.6377 22.3816H18.4049C20.3446 24.8801 20.9721 24.1253 20.2704 28.3573Z" fill="#2962A8"/>
</svg>
